<svg xmlns="http://www.w3.org/2000/svg" width="1312" height="346" viewBox="0 0 1312 346" font-family="-apple-system, BlinkMacSystemFont, sans-serif">
<style>text { fill:#222; font-size:11px; }.title { font-size:14px; font-weight:600; }.subtitle { font-size:10px; fill:#666; }.band { font-size:12px; font-weight:500; }.tick { font-size:9px; fill:#555; }.cell { stroke:#fff; stroke-width:0.5; }.cell:hover { stroke:#000; stroke-width:1.5; }</style>
<text class="title" x="92" y="26">Coverage + Speed Heatmap — 10 languages × 10 problems</text>
<text class="subtitle" x="92" y="42">Hover any cell for problem · language · per-invocation time</text>
<text class="band" x="92" y="71">Problems 001–010</text>
<text x="86" y="91.0" text-anchor="end">ARM64</text>
<text x="86" y="109.0" text-anchor="end">C</text>
<text x="86" y="127.0" text-anchor="end">C++</text>
<text x="86" y="145.0" text-anchor="end">Rust</text>
<text x="86" y="163.0" text-anchor="end">Zig</text>
<text x="86" y="181.0" text-anchor="end">Go</text>
<text x="86" y="199.0" text-anchor="end">C#</text>
<text x="86" y="217.0" text-anchor="end">Java</text>
<text x="86" y="235.0" text-anchor="end">JavaScript</text>
<text x="86" y="253.0" text-anchor="end">Python</text>
<rect class="cell" x="92" y="78" width="12" height="18" fill="#84E184"><title>p001 ARM64: 0 ns</title></rect>
<rect class="cell" x="104" y="78" width="12" height="18" fill="#84E184"><title>p002 ARM64: 0 ns</title></rect>
<rect class="cell" x="116" y="78" width="12" height="18" fill="#84E184"><title>p003 ARM64: 0 ns</title></rect>
<rect class="cell" x="128" y="78" width="12" height="18" fill="#84E184"><title>p004 ARM64: 2.0 µs</title></rect>
<rect class="cell" x="140" y="78" width="12" height="18" fill="#84E184"><title>p005 ARM64: 1.0 µs</title></rect>
<rect class="cell" x="152" y="78" width="12" height="18" fill="#84E184"><title>p006 ARM64: 0 ns</title></rect>
<rect class="cell" x="164" y="78" width="12" height="18" fill="#5BC85B"><title>p007 ARM64: 247.0 µs</title></rect>
<rect class="cell" x="176" y="78" width="12" height="18" fill="#84E184"><title>p008 ARM64: 4.0 µs</title></rect>
<rect class="cell" x="188" y="78" width="12" height="18" fill="#84E184"><title>p009 ARM64: 0 ns</title></rect>
<rect class="cell" x="200" y="78" width="12" height="18" fill="#36A036"><title>p010 ARM64: 1.49 ms</title></rect>
<rect class="cell" x="92" y="96" width="12" height="18" fill="#84E184"><title>p001 C: 42 ns</title></rect>
<rect class="cell" x="104" y="96" width="12" height="18" fill="#84E184"><title>p002 C: 42 ns</title></rect>
<rect class="cell" x="116" y="96" width="12" height="18" fill="#84E184"><title>p003 C: 667 ns</title></rect>
<rect class="cell" x="128" y="96" width="12" height="18" fill="#84E184"><title>p004 C: 3.4 µs</title></rect>
<rect class="cell" x="140" y="96" width="12" height="18" fill="#84E184"><title>p005 C: 333 ns</title></rect>
<rect class="cell" x="152" y="96" width="12" height="18" fill="#84E184"><title>p006 C: 42 ns</title></rect>
<rect class="cell" x="164" y="96" width="12" height="18" fill="#84E184"><title>p007 C: 22.8 µs</title></rect>
<rect class="cell" x="176" y="96" width="12" height="18" fill="#84E184"><title>p008 C: 2.8 µs</title></rect>
<rect class="cell" x="188" y="96" width="12" height="18" fill="#84E184"><title>p009 C: 208 ns</title></rect>
<rect class="cell" x="200" y="96" width="12" height="18" fill="#5BC85B"><title>p010 C: 350.1 µs</title></rect>
<rect class="cell" x="92" y="114" width="12" height="18" fill="#84E184"><title>p001 C++: 167 ns</title></rect>
<rect class="cell" x="104" y="114" width="12" height="18" fill="#84E184"><title>p002 C++: 167 ns</title></rect>
<rect class="cell" x="116" y="114" width="12" height="18" fill="#84E184"><title>p003 C++: 27.1 µs</title></rect>
<rect class="cell" x="128" y="114" width="12" height="18" fill="#84E184"><title>p004 C++: 25.5 µs</title></rect>
<rect class="cell" x="140" y="114" width="12" height="18" fill="#84E184"><title>p005 C++: 375 ns</title></rect>
<rect class="cell" x="152" y="114" width="12" height="18" fill="#84E184"><title>p006 C++: 125 ns</title></rect>
<rect class="cell" x="164" y="114" width="12" height="18" fill="#84E184"><title>p007 C++: 24.8 µs</title></rect>
<rect class="cell" x="176" y="114" width="12" height="18" fill="#84E184"><title>p008 C++: 2.4 µs</title></rect>
<rect class="cell" x="188" y="114" width="12" height="18" fill="#84E184"><title>p009 C++: 292 ns</title></rect>
<rect class="cell" x="200" y="114" width="12" height="18" fill="#5BC85B"><title>p010 C++: 308.7 µs</title></rect>
<rect class="cell" x="92" y="132" width="12" height="18" fill="#84E184"><title>p001 Rust: 41 ns</title></rect>
<rect class="cell" x="104" y="132" width="12" height="18" fill="#84E184"><title>p002 Rust: 83 ns</title></rect>
<rect class="cell" x="116" y="132" width="12" height="18" fill="#84E184"><title>p003 Rust: 80.4 µs</title></rect>
<rect class="cell" x="128" y="132" width="12" height="18" fill="#84E184"><title>p004 Rust: 14.0 µs</title></rect>
<rect class="cell" x="140" y="132" width="12" height="18" fill="#84E184"><title>p005 Rust: 584 ns</title></rect>
<rect class="cell" x="152" y="132" width="12" height="18" fill="#84E184"><title>p006 Rust: 42 ns</title></rect>
<rect class="cell" x="164" y="132" width="12" height="18" fill="#5BC85B"><title>p007 Rust: 258.2 µs</title></rect>
<rect class="cell" x="176" y="132" width="12" height="18" fill="#84E184"><title>p008 Rust: 14.2 µs</title></rect>
<rect class="cell" x="188" y="132" width="12" height="18" fill="#84E184"><title>p009 Rust: 208 ns</title></rect>
<rect class="cell" x="200" y="132" width="12" height="18" fill="#36A036"><title>p010 Rust: 1.14 ms</title></rect>
<rect class="cell" x="92" y="150" width="12" height="18" fill="#84E184"><title>p001 Zig: 42 ns</title></rect>
<rect class="cell" x="104" y="150" width="12" height="18" fill="#84E184"><title>p002 Zig: 42 ns</title></rect>
<rect class="cell" x="116" y="150" width="12" height="18" fill="#84E184"><title>p003 Zig: 750 ns</title></rect>
<rect class="cell" x="128" y="150" width="12" height="18" fill="#84E184"><title>p004 Zig: 3.1 µs</title></rect>
<rect class="cell" x="140" y="150" width="12" height="18" fill="#84E184"><title>p005 Zig: 500 ns</title></rect>
<rect class="cell" x="152" y="150" width="12" height="18" fill="#84E184"><title>p006 Zig: 42 ns</title></rect>
<rect class="cell" x="164" y="150" width="12" height="18" fill="#5BC85B"><title>p007 Zig: 177.6 µs</title></rect>
<rect class="cell" x="176" y="150" width="12" height="18" fill="#84E184"><title>p008 Zig: 1.7 µs</title></rect>
<rect class="cell" x="188" y="150" width="12" height="18" fill="#84E184"><title>p009 Zig: 208 ns</title></rect>
<rect class="cell" x="200" y="150" width="12" height="18" fill="#36A036"><title>p010 Zig: 2.13 ms</title></rect>
<rect class="cell" x="92" y="168" width="12" height="18" fill="#84E184"><title>p001 Go: 1.6 µs</title></rect>
<rect class="cell" x="104" y="168" width="12" height="18" fill="#84E184"><title>p002 Go: 1.3 µs</title></rect>
<rect class="cell" x="116" y="168" width="12" height="18" fill="#84E184"><title>p003 Go: 1.7 µs</title></rect>
<rect class="cell" x="128" y="168" width="12" height="18" fill="#84E184"><title>p004 Go: 4.7 µs</title></rect>
<rect class="cell" x="140" y="168" width="12" height="18" fill="#84E184"><title>p005 Go: 2.1 µs</title></rect>
<rect class="cell" x="152" y="168" width="12" height="18" fill="#84E184"><title>p006 Go: 1.8 µs</title></rect>
<rect class="cell" x="164" y="168" width="12" height="18" fill="#5BC85B"><title>p007 Go: 453.8 µs</title></rect>
<rect class="cell" x="176" y="168" width="12" height="18" fill="#84E184"><title>p008 Go: 4.5 µs</title></rect>
<rect class="cell" x="188" y="168" width="12" height="18" fill="#84E184"><title>p009 Go: 1.3 µs</title></rect>
<rect class="cell" x="200" y="168" width="12" height="18" fill="#36A036"><title>p010 Go: 4.70 ms</title></rect>
<rect class="cell" x="92" y="186" width="12" height="18" fill="#84E184"><title>p001 C#: 65.9 µs</title></rect>
<rect class="cell" x="104" y="186" width="12" height="18" fill="#84E184"><title>p002 C#: 85.9 µs</title></rect>
<rect class="cell" x="116" y="186" width="12" height="18" fill="#84E184"><title>p003 C#: 89.2 µs</title></rect>
<rect class="cell" x="128" y="186" width="12" height="18" fill="#5BC85B"><title>p004 C#: 189.1 µs</title></rect>
<rect class="cell" x="140" y="186" width="12" height="18" fill="#36A036"><title>p005 C#: 1.92 ms</title></rect>
<rect class="cell" x="152" y="186" width="12" height="18" fill="#84E184"><title>p006 C#: 60.1 µs</title></rect>
<rect class="cell" x="164" y="186" width="12" height="18" fill="#5BC85B"><title>p007 C#: 812.2 µs</title></rect>
<rect class="cell" x="176" y="186" width="12" height="18" fill="#5BC85B"><title>p008 C#: 174.0 µs</title></rect>
<rect class="cell" x="188" y="186" width="12" height="18" fill="#5BC85B"><title>p009 C#: 504.7 µs</title></rect>
<rect class="cell" x="200" y="186" width="12" height="18" fill="#36A036"><title>p010 C#: 9.93 ms</title></rect>
<rect class="cell" x="92" y="204" width="12" height="18" fill="#84E184"><title>p001 Java: 2.6 µs</title></rect>
<rect class="cell" x="104" y="204" width="12" height="18" fill="#84E184"><title>p002 Java: 2.7 µs</title></rect>
<rect class="cell" x="116" y="204" width="12" height="18" fill="#84E184"><title>p003 Java: 8.3 µs</title></rect>
<rect class="cell" x="128" y="204" width="12" height="18" fill="#5BC85B"><title>p004 Java: 315.2 µs</title></rect>
<rect class="cell" x="140" y="204" width="12" height="18" fill="#84E184"><title>p005 Java: 5.4 µs</title></rect>
<rect class="cell" x="152" y="204" width="12" height="18" fill="#84E184"><title>p006 Java: 2.0 µs</title></rect>
<rect class="cell" x="164" y="204" width="12" height="18" fill="#36A036"><title>p007 Java: 1.61 ms</title></rect>
<rect class="cell" x="176" y="204" width="12" height="18" fill="#84E184"><title>p008 Java: 56.4 µs</title></rect>
<rect class="cell" x="188" y="204" width="12" height="18" fill="#84E184"><title>p009 Java: 6.0 µs</title></rect>
<rect class="cell" x="200" y="204" width="12" height="18" fill="#36A036"><title>p010 Java: 8.26 ms</title></rect>
<rect class="cell" x="92" y="222" width="12" height="18" fill="#84E184"><title>p001 JavaScript: 18.0 µs</title></rect>
<rect class="cell" x="104" y="222" width="12" height="18" fill="#84E184"><title>p002 JavaScript: 11.5 µs</title></rect>
<rect class="cell" x="116" y="222" width="12" height="18" fill="#84E184"><title>p003 JavaScript: 49.6 µs</title></rect>
<rect class="cell" x="128" y="222" width="12" height="18" fill="#84E184"><title>p004 JavaScript: 98.5 µs</title></rect>
<rect class="cell" x="140" y="222" width="12" height="18" fill="#84E184"><title>p005 JavaScript: 29.0 µs</title></rect>
<rect class="cell" x="152" y="222" width="12" height="18" fill="#84E184"><title>p006 JavaScript: 7.3 µs</title></rect>
<rect class="cell" x="164" y="222" width="12" height="18" fill="#36A036"><title>p007 JavaScript: 2.86 ms</title></rect>
<rect class="cell" x="176" y="222" width="12" height="18" fill="#84E184"><title>p008 JavaScript: 98.8 µs</title></rect>
<rect class="cell" x="188" y="222" width="12" height="18" fill="#84E184"><title>p009 JavaScript: 26.5 µs</title></rect>
<rect class="cell" x="200" y="222" width="12" height="18" fill="#1E6A1E"><title>p010 JavaScript: 10.35 ms</title></rect>
<rect class="cell" x="92" y="240" width="12" height="18" fill="#84E184"><title>p001 Python: 1.5 µs</title></rect>
<rect class="cell" x="104" y="240" width="12" height="18" fill="#84E184"><title>p002 Python: 3.1 µs</title></rect>
<rect class="cell" x="116" y="240" width="12" height="18" fill="#36A036"><title>p003 Python: 5.73 ms</title></rect>
<rect class="cell" x="128" y="240" width="12" height="18" fill="#1E6A1E"><title>p004 Python: 56.40 ms</title></rect>
<rect class="cell" x="140" y="240" width="12" height="18" fill="#84E184"><title>p005 Python: 5.2 µs</title></rect>
<rect class="cell" x="152" y="240" width="12" height="18" fill="#84E184"><title>p006 Python: 1.1 µs</title></rect>
<rect class="cell" x="164" y="240" width="12" height="18" fill="#36A036"><title>p007 Python: 1.39 ms</title></rect>
<rect class="cell" x="176" y="240" width="12" height="18" fill="#5BC85B"><title>p008 Python: 877.2 µs</title></rect>
<rect class="cell" x="188" y="240" width="12" height="18" fill="#36A036"><title>p009 Python: 4.81 ms</title></rect>
<rect class="cell" x="200" y="240" width="12" height="18" fill="#36A036"><title>p010 Python: 5.35 ms</title></rect>
<text class="tick" x="98.0" y="270" text-anchor="middle">p001</text>
<rect x="92.0" y="304" width="14" height="14" fill="#84E184" stroke="#000" stroke-width="0.3"/>
<text x="110.0" y="315">pass · &lt;100µs</text>
<rect x="263.42857142857144" y="304" width="14" height="14" fill="#5BC85B" stroke="#000" stroke-width="0.3"/>
<text x="281.42857142857144" y="315">pass · &lt;1ms</text>
<rect x="434.85714285714283" y="304" width="14" height="14" fill="#36A036" stroke="#000" stroke-width="0.3"/>
<text x="452.85714285714283" y="315">pass · &lt;10ms</text>
<rect x="606.2857142857142" y="304" width="14" height="14" fill="#1E6A1E" stroke="#000" stroke-width="0.3"/>
<text x="624.2857142857142" y="315">pass · &lt;100ms</text>
<rect x="777.7142857142857" y="304" width="14" height="14" fill="#F0C808" stroke="#000" stroke-width="0.3"/>
<text x="795.7142857142857" y="315">pass · ≥100ms</text>
<rect x="949.1428571428571" y="304" width="14" height="14" fill="#D7263D" stroke="#000" stroke-width="0.3"/>
<text x="967.1428571428571" y="315">fail</text>
<rect x="1120.5714285714284" y="304" width="14" height="14" fill="#222222" stroke="#000" stroke-width="0.3"/>
<text x="1138.5714285714284" y="315">missing</text>
</svg>